<svg version="1.1" id="Layer_1" xmlns="http://www.w3.org/2000/svg" xmlns:xlink="http://www.w3.org/1999/xlink" x="0px" y="0px"
	 width="100%" viewBox="0 0 1024 1024" enable-background="new 0 0 1024 1024" xml:space="preserve">
<path fill="#000000" opacity="1.000000" stroke="none" 
	d="
M678.364990,601.697632 
	C663.884705,587.167603 649.573669,572.967224 635.517578,558.518799 
	C632.304260,555.215759 629.978455,555.050476 626.203674,557.650208 
	C602.744324,573.806946 577.125244,584.882629 548.949036,589.808411 
	C530.305542,593.067627 511.621277,593.321716 492.812286,591.489136 
	C464.393311,588.720215 437.773865,580.413147 413.220886,565.867737 
	C377.137787,544.491577 349.850281,514.849060 331.350372,477.220398 
	C322.402161,459.019775 317.134064,439.743774 314.487152,419.594543 
	C309.516479,381.756378 314.330048,345.324921 329.391815,310.346741 
	C347.037445,269.368042 376.231750,238.828751 415.007141,217.178940 
	C437.364502,204.695938 461.317627,196.797241 486.680115,193.906189 
	C506.857880,191.606140 527.074829,191.971161 547.280151,195.375458 
	C582.415955,201.295349 613.842957,215.331451 641.322876,237.745773 
	C678.915649,268.408875 701.649231,307.964081 710.551697,355.714905 
	C713.850891,373.411163 714.353882,391.222473 713.054016,408.887573 
	C710.345398,445.697998 697.706604,479.183868 675.679199,508.976654 
	C674.012451,511.230957 672.458252,513.568481 670.748230,516.015381 
	C680.360229,525.671875 689.741028,535.087097 699.111145,544.512878 
	C704.632080,550.066650 710.214600,555.561829 715.632751,561.214417 
	C731.070068,577.319519 724.409363,601.843750 702.827209,607.627441 
	C694.015198,609.988953 685.635803,608.330811 678.364990,601.697632 
M412.359497,269.889984 
	C370.272919,305.115051 351.644531,350.218079 355.238495,404.831329 
	C356.681976,426.765717 362.755646,447.178253 373.177521,466.513672 
	C404.513824,524.651245 470.177643,559.017090 536.842102,548.844666 
	C576.618835,542.775085 608.920837,523.689026 634.591797,493.505890 
	C665.687866,456.944122 677.218933,414.364227 669.624695,366.953094 
	C663.750610,330.280853 646.972351,299.174133 618.854553,274.839478 
	C580.985596,242.065659 537.010742,229.003372 487.248199,236.344879 
	C459.395294,240.454025 434.733124,251.764664 412.359497,269.889984 
z"/>
<path fill="#000000" opacity="1.000000" stroke="none" 
	d="
M779.976074,706.058350 
	C779.864807,738.682007 779.682678,770.815674 779.723511,802.949158 
	C779.728271,806.674438 778.373108,807.717896 775.081787,807.370239 
	C774.752441,807.335388 774.415527,807.379395 774.082886,807.367615 
	C767.272827,807.125916 759.612549,809.465881 753.879761,806.460205 
	C748.162292,803.462646 745.684387,795.881226 741.779297,790.322388 
	C730.391968,774.112732 719.240295,757.737854 707.966125,741.448547 
	C706.381104,739.158264 704.627991,736.984314 702.175171,733.722656 
	C702.175171,738.016174 702.170044,741.103210 702.176086,744.190247 
	C702.213928,763.346375 702.148315,782.503845 702.375000,801.657715 
	C702.425781,805.945435 701.250305,807.714355 696.750366,807.443787 
	C691.272949,807.114441 685.746887,807.116272 680.268311,807.432495 
	C675.819702,807.689209 674.571655,806.010071 674.602295,801.681335 
	C674.772400,777.695618 674.676880,753.707886 674.674866,729.720886 
	C674.673706,716.061646 674.677307,702.402344 674.678650,688.743103 
	C674.678833,686.943726 674.678711,685.144348 674.678711,682.734497 
	C683.095398,682.734497 691.029541,682.666565 698.961365,682.771301 
	C701.745422,682.807983 702.633484,685.412415 703.903259,687.266602 
	C716.885315,706.223267 729.811890,725.217773 742.755615,744.200623 
	C745.747559,748.588257 748.745972,752.971375 752.448120,758.391357 
	C752.448120,732.679932 752.448120,708.058533 752.448120,682.925598 
	C761.072754,682.202698 769.114502,681.854065 777.199585,682.601501 
	C779.120483,682.779053 779.778259,683.797729 779.592346,685.609924 
	C778.908630,692.276917 780.097961,698.910400 779.976074,706.058350 
z"/>
<path fill="#000000" opacity="1.000000" stroke="none" 
	d="
M328.841675,745.654541 
	C324.672577,753.126526 318.057098,757.237427 310.503174,761.085693 
	C319.661713,776.268982 328.635223,791.145569 337.865295,806.447449 
	C334.051819,808.008850 330.727478,807.217285 327.525848,807.343933 
	C323.865173,807.488831 320.094727,806.827026 316.547760,807.476318 
	C308.584045,808.934143 304.480988,805.064758 301.074677,798.493896 
	C296.096588,788.891174 290.155792,779.788635 285.145294,770.201233 
	C283.014557,766.124084 280.426605,764.971008 276.083771,765.104675 
	C264.643097,765.456848 266.466797,764.626831 266.368225,774.759827 
	C266.277435,784.092041 266.237549,793.427490 266.395844,802.757874 
	C266.454620,806.223022 265.211548,807.517334 261.748505,807.408325 
	C255.921234,807.224854 250.070419,807.122070 244.255066,807.445190 
	C239.861816,807.689331 238.539642,806.172729 238.566544,801.772339 
	C238.739716,773.440918 238.652206,745.107910 238.651031,716.775391 
	C238.650635,707.275635 238.926590,697.764709 238.538269,688.280884 
	C238.342346,683.495911 240.337662,682.131897 244.548996,682.154724 
	C256.040497,682.217163 267.547546,681.841858 279.018494,682.335571 
	C285.800446,682.627441 292.593445,682.387146 299.408356,683.489014 
	C325.384583,687.689087 336.907257,706.942383 334.054108,730.824280 
	C333.442047,735.947876 331.816040,740.884766 328.841675,745.654541 
M275.758789,707.397644 
	C273.759064,707.411133 271.759308,707.427490 269.759583,707.437317 
	C267.597046,707.447937 266.333679,708.267212 266.348114,710.689514 
	C266.402740,719.855347 266.377319,729.021606 266.375000,738.187744 
	C266.374512,740.089050 267.061127,741.670471 269.136353,741.612488 
	C277.585632,741.376526 286.145325,742.836853 294.447845,740.175232 
	C301.601562,737.881836 306.606171,731.463562 306.584839,724.722778 
	C306.559967,716.867859 301.507690,710.629761 293.582947,708.393616 
	C288.002411,706.818970 282.328278,707.614563 275.758789,707.397644 
z"/>
<path fill="#000000" opacity="1.000000" stroke="none" 
	d="
M459.326691,726.000000 
	C459.327606,738.499451 459.370270,750.499023 459.319763,762.498230 
	C459.211731,788.166504 443.047424,806.045593 417.520325,809.513611 
	C405.872711,811.096008 394.576508,810.201782 383.645355,806.333252 
	C366.343597,800.210327 356.165771,787.939819 354.653351,769.437744 
	C352.342743,741.171265 354.126099,712.834167 353.753204,684.531250 
	C353.747101,684.070374 354.024109,683.605774 354.244812,682.900818 
	C361.969421,681.885925 369.756592,682.085144 377.543152,682.130676 
	C381.585419,682.154297 381.359039,684.874023 381.357025,687.636475 
	C381.339996,710.968689 381.354218,734.300964 381.346619,757.633179 
	C381.344971,762.693298 382.309082,767.542480 384.427643,772.142639 
	C389.228882,782.567749 401.653320,786.442688 413.498901,783.633911 
	C423.502258,781.262024 430.594604,772.272949 430.645355,761.278259 
	C430.758392,736.779968 430.811310,712.280457 430.661652,687.782837 
	C430.636658,683.685913 431.668518,682.268799 435.939545,682.455322 
	C442.079987,682.723450 448.257843,682.320862 454.411499,682.030212 
	C458.071594,681.857300 459.414490,683.320679 459.373322,687.002319 
	C459.229889,699.833496 459.323029,712.667236 459.326691,726.000000 
z"/>
<path fill="#000000" opacity="1.000000" stroke="none" 
	d="
M879.725037,743.186096 
	C900.642029,756.536011 898.596619,790.238953 877.856689,802.550049 
	C858.599548,813.981079 826.666382,812.598450 810.398743,798.714722 
	C802.159363,791.682800 798.002747,782.509155 797.520447,771.010315 
	C806.142578,769.287415 814.535217,767.610352 822.903137,765.938232 
	C824.736877,767.139282 824.813538,769.121094 825.282166,770.787354 
	C829.784546,786.796753 853.508789,789.015503 863.387695,780.798462 
	C868.580933,776.478760 868.509094,769.815613 863.323242,765.253967 
	C858.123718,760.680481 851.512512,759.248779 845.144958,757.407959 
	C837.318176,755.145142 829.384094,753.259583 821.876221,749.993408 
	C806.418091,743.268677 799.927002,732.317139 800.671143,714.128479 
	C801.245789,700.082947 810.429932,688.121094 824.832275,683.686829 
	C841.819214,678.456787 858.763000,678.700806 874.733337,687.135437 
	C885.323425,692.728394 890.595398,702.330139 891.968384,714.569336 
	C884.076050,716.274414 876.344055,717.955017 868.606628,719.610229 
	C866.235840,720.117371 866.081787,718.302795 865.422974,716.723938 
	C860.783936,705.606812 847.036194,700.531799 836.162903,705.602722 
	C831.612976,707.724487 828.776123,711.179626 828.596558,715.895691 
	C828.414062,720.690430 831.264160,724.429443 835.612854,726.603027 
	C844.156250,730.873230 853.564209,732.631226 862.557739,735.595642 
	C868.428406,737.530701 874.222534,739.553833 879.725037,743.186096 
z"/>
<path fill="#000000" opacity="1.000000" stroke="none" 
	d="
M621.002441,781.650391 
	C631.167908,781.655823 640.836121,781.783630 650.498718,781.606689 
	C654.168823,781.539551 655.554504,782.784729 655.401978,786.495422 
	C655.169556,792.152283 655.268982,797.826294 655.353882,803.491150 
	C655.394531,806.206726 654.357849,807.382996 651.550171,807.376526 
	C627.718750,807.321594 603.887207,807.331970 580.055664,807.358215 
	C577.465393,807.361084 576.103577,806.616882 576.106323,803.637024 
	C576.139282,767.989685 576.065002,732.342285 576.040100,696.694885 
	C576.030273,682.638428 576.054443,682.616882 590.130737,682.600708 
	C609.962524,682.577881 629.794922,682.669373 649.625488,682.513855 
	C653.073975,682.486877 654.467712,683.402405 654.318176,686.966614 
	C654.108887,691.957214 654.083923,696.973633 654.343323,701.960144 
	C654.555847,706.045532 653.109497,707.527771 648.929565,707.461609 
	C635.933777,707.255798 622.929260,707.556763 609.935364,707.298340 
	C605.352234,707.207153 603.619446,708.553345 604.001282,713.260193 
	C604.377258,717.893494 604.204224,722.594421 603.953552,727.248535 
	C603.733154,731.340149 605.248657,732.789795 609.421448,732.725891 
	C623.070984,732.516846 636.725708,732.647400 651.204407,732.647400 
	C651.204407,739.992676 651.378845,747.071655 651.120605,754.134766 
	C651.013794,757.055176 648.209290,756.332031 646.371094,756.342041 
	C634.372314,756.407532 622.364929,756.629333 610.377563,756.251831 
	C605.158752,756.087524 603.623596,757.902588 603.985779,762.831299 
	C604.351257,767.805237 604.159790,772.825073 604.100342,777.823486 
	C604.067627,780.574219 605.237732,781.738770 608.004150,781.668152 
	C612.167847,781.561768 616.336426,781.647339 621.002441,781.650391 
z"/>
<path fill="#000000" opacity="1.000000" stroke="none" 
	d="
M158.799805,682.546021 
	C179.735367,681.584717 200.228973,682.214844 220.717789,682.115784 
	C223.810791,682.100830 225.219437,683.310974 225.093582,686.623474 
	C224.885010,692.113647 224.964142,697.619141 225.069824,703.115295 
	C225.130463,706.267822 223.977203,707.540894 220.655090,707.465332 
	C212.161636,707.272095 203.658340,707.520569 195.164307,707.340515 
	C191.354431,707.259705 190.284149,708.838501 190.410309,712.432983 
	C191.450684,742.078003 190.631393,771.738098 191.063004,801.387268 
	C191.135147,806.343506 189.422607,807.763000 184.730896,807.460693 
	C179.254837,807.107971 173.725601,807.134827 168.244659,807.443970 
	C163.834930,807.692688 162.544571,806.091125 162.569748,801.724121 
	C162.735977,772.899231 162.654388,744.072815 162.650894,715.246948 
	C162.649933,707.393127 162.645721,707.394226 154.658279,707.395325 
	C147.660095,707.396301 140.658966,707.273987 133.664932,707.444031 
	C130.138229,707.529785 128.464661,706.538086 128.660904,702.654236 
	C128.929626,697.336426 128.870453,691.987366 128.647018,686.664429 
	C128.495865,683.063538 130.029022,682.031189 133.389954,682.137146 
	C141.705231,682.399414 150.027740,682.432007 158.799805,682.546021 
z"/>
<path fill="#000000" opacity="1.000000" stroke="none" 
	d="
M511.348328,764.997131 
	C511.348846,768.993103 511.590576,772.510864 511.288208,775.981079 
	C510.913757,780.278137 512.325439,781.841125 516.842896,781.740662 
	C529.324646,781.463074 541.820190,781.821411 554.303040,781.569580 
	C558.744263,781.479980 560.245300,783.119629 560.089050,787.340027 
	C559.898193,792.494446 559.908386,797.666626 560.099365,802.821228 
	C560.230164,806.352051 558.732666,807.426636 555.364197,807.412415 
	C532.886047,807.317444 510.407013,807.285217 487.929291,807.413940 
	C483.946045,807.436768 482.822083,805.962585 482.831696,802.128174 
	C482.928040,763.665527 482.875519,725.202515 482.866882,686.739563 
	C482.866364,684.515076 482.778381,682.116028 485.947021,682.112000 
	C494.226837,682.101318 502.524445,681.804626 511.348145,683.016479 
	C511.348145,710.310974 511.348145,737.404419 511.348328,764.997131 
z"/>
<path fill="#000000" opacity="1.000000" stroke="none" 
	d="
M558.991211,418.984009 
	C541.634888,439.876465 524.499451,460.492676 507.356171,481.102356 
	C506.610901,481.998322 505.806763,482.846680 505.008270,483.696747 
	C497.229584,491.977905 491.202789,492.387299 483.474640,484.248749 
	C457.439758,456.831177 431.539795,429.284271 405.747742,401.638031 
	C398.485840,393.854095 398.897125,387.853546 406.285309,380.372406 
	C410.496216,376.108521 414.574646,371.704834 418.931824,367.596436 
	C426.222992,360.721588 430.471313,360.840027 437.664825,367.978302 
	C452.917511,383.114014 468.111206,398.309204 483.338226,413.470764 
	C487.846222,417.959442 488.544739,417.969543 492.993713,413.506866 
	C514.741455,391.692078 536.521729,369.909454 558.199890,348.025726 
	C571.908142,334.187500 585.443726,320.178345 599.083984,306.272552 
	C605.557922,299.672638 611.723938,299.740570 618.078674,306.329742 
	C621.432373,309.807129 624.876953,313.196655 628.250061,316.655518 
	C633.488586,322.027252 634.109680,328.279297 629.348450,334.078705 
	C611.700989,355.574097 593.883362,376.929779 576.127258,398.335968 
	C570.492249,405.129364 564.849731,411.916565 558.991211,418.984009 
z"/>
</svg>